<svg width="57" height="57" viewBox="0 0 57 57" fill="none" xmlns="http://www.w3.org/2000/svg">
<path d="M21.9688 52.25L21.0188 44.65C20.5042 44.4521 20.0197 44.2146 19.5653 43.9375C19.1108 43.6604 18.6651 43.3635 18.2281 43.0469L11.1625 46.0156L4.63126 34.7344L10.7469 30.1031C10.7073 29.826 10.6875 29.5592 10.6875 29.3028V27.6996C10.6875 27.4415 10.7073 27.174 10.7469 26.8969L4.63126 22.2656L11.1625 10.9844L18.2281 13.9531C18.6635 13.6365 19.1188 13.3396 19.5938 13.0625C20.0688 12.7854 20.5438 12.5479 21.0188 12.35L21.9688 4.75H35.0313L35.9813 12.35C36.4958 12.5479 36.9811 12.7854 37.4371 13.0625C37.8931 13.3396 38.3381 13.6365 38.7719 13.9531L45.8375 10.9844L52.3688 22.2656L46.2531 26.8969C46.2927 27.174 46.3125 27.4415 46.3125 27.6996V29.3004C46.3125 29.5585 46.2729 29.826 46.1938 30.1031L52.3094 34.7344L45.7781 46.0156L38.7719 43.0469C38.3365 43.3635 37.8813 43.6604 37.4063 43.9375C36.9313 44.2146 36.4563 44.4521 35.9813 44.65L35.0313 52.25H21.9688ZM28.6188 36.8125C30.9146 36.8125 32.874 36.001 34.4969 34.3781C36.1198 32.7552 36.9313 30.7958 36.9313 28.5C36.9313 26.2042 36.1198 24.2448 34.4969 22.6219C32.874 20.999 30.9146 20.1875 28.6188 20.1875C26.2833 20.1875 24.3137 20.999 22.7098 22.6219C21.1058 24.2448 20.3047 26.2042 20.3063 28.5C20.3078 30.7958 21.1098 32.7552 22.7121 34.3781C24.3145 36.001 26.2833 36.8125 28.6188 36.8125Z" fill="black"/>
</svg>
